<?xml version="1.0" encoding="utf-8"?>
<!-- Generator: Adobe Illustrator 25.2.1, SVG Export Plug-In . SVG Version: 6.00 Build 0)  -->
<svg version="1.1" id="Layer_1" xmlns="http://www.w3.org/2000/svg" xmlns:xlink="http://www.w3.org/1999/xlink" x="0px" y="0px"
	 viewBox="0 0 124 50" style="enable-background:new 0 0 124 50;" xml:space="preserve">
<style type="text/css">
	.st0{fill:#231F20;}
</style>
<path class="st0" d="M2.3,20.9c0-9.6,7.7-17.3,17.2-17.3h0.1v17.3H2.3z"/>
<path class="st0" d="M3.9,22c0,8.7,7,15.7,15.7,15.7h0.1V22H3.9z"/>
<path class="st0" d="M115.7,23v1.8h-4.1v8.4c0,0.5,0,1,0.1,1.3s0.3,0.6,0.4,0.8c0.2,0.2,0.4,0.3,0.6,0.4c0.2,0.1,0.5,0.1,0.8,0.1
	s0.7,0,1.1-0.1s0.7-0.2,1-0.4l0.1,1.9c-0.8,0.3-1.6,0.5-2.7,0.5c-0.4,0-0.8,0-1.2-0.1c-0.4-0.1-0.8-0.3-1.1-0.6
	c-0.3-0.3-0.6-0.7-0.9-1.1c-0.2-0.5-0.3-1.1-0.3-1.9v-9h-3v-2h3v-4h2v4H115.7L115.7,23z"/>
<path class="st0" d="M87,30.2h-1c-0.5,0-1.1,0-1.9,0.1c-0.8,0-1.5,0.2-2.2,0.4c-0.7,0.2-1.3,0.5-1.8,0.9c-0.5,0.4-0.8,1-0.8,1.7
	c0,0.5,0.1,0.9,0.3,1.2c0.2,0.3,0.5,0.6,0.8,0.8s0.7,0.4,1.1,0.5s0.8,0.1,1.2,0.1c0.7,0,1.4-0.1,1.9-0.4c0.5-0.2,1-0.6,1.4-1
	s0.6-0.9,0.8-1.5c0.2-0.6,0.3-1.1,0.3-1.8L87,30.2L87,30.2z M86,28.5h1v-0.4c0-2.5-1.2-3.7-3.7-3.7c-1.7,0-3.1,0.6-4.3,1.7l-1.2-1.4
	c1.3-1.4,3.3-2.1,6-2.1c0.7,0,1.4,0.1,2,0.3c0.6,0.2,1.2,0.5,1.7,0.9s0.8,0.9,1.1,1.6c0.3,0.6,0.4,1.4,0.4,2.2v6.3
	c0,0.5,0,1.1,0.1,1.7c0,0.6,0.1,1.1,0.2,1.5h-1.9c-0.1-0.3-0.1-0.7-0.1-1.1c0-0.4,0-0.8,0-1.2l0,0c-0.6,1-1.3,1.6-2.1,2
	c-0.8,0.4-1.8,0.6-2.9,0.6c-0.6,0-1.2-0.1-1.8-0.3c-0.6-0.2-1.1-0.4-1.6-0.8c-0.5-0.4-0.8-0.8-1.1-1.3c-0.3-0.5-0.4-1.1-0.4-1.8
	c0-1.1,0.3-2.1,0.9-2.7c0.6-0.7,1.4-1.1,2.3-1.5c0.9-0.3,1.9-0.5,2.9-0.6C84.2,28.6,85.1,28.5,86,28.5z M105.7,25.1l-1.7,1.2
	c-0.3-0.5-0.8-1-1.4-1.3c-0.6-0.4-1.3-0.5-2.1-0.5c-0.8,0-1.6,0.1-2.2,0.4c-0.7,0.3-1.2,0.7-1.7,1.2s-0.8,1.1-1.1,1.8
	c-0.3,0.7-0.4,1.5-0.4,2.3s0.1,1.6,0.4,2.3s0.6,1.3,1.1,1.8s1,0.9,1.7,1.2s1.4,0.4,2.2,0.4c0.8,0,1.5-0.2,2.1-0.5
	c0.6-0.4,1.1-0.8,1.4-1.3l1.7,1.2c-0.7,0.8-1.5,1.4-2.4,1.8c-0.9,0.4-1.8,0.6-2.8,0.6c-1.1,0-2.2-0.2-3.1-0.5
	c-0.9-0.4-1.7-0.9-2.4-1.6c-0.7-0.7-1.2-1.5-1.5-2.4s-0.5-1.9-0.5-3s0.2-2.1,0.5-3s0.8-1.7,1.5-2.4c0.7-0.7,1.5-1.2,2.4-1.6
	s2-0.6,3.1-0.5c1,0,1.9,0.2,2.8,0.6C104.1,23.7,105,24.3,105.7,25.1z"/>
<path class="st0" d="M72.3,30.1c0-0.8-0.1-1.5-0.4-2.2s-0.6-1.3-1.1-1.8s-1-0.9-1.7-1.2c-0.7-0.3-1.4-0.4-2.2-0.4
	c-0.8,0-1.6,0.1-2.3,0.4c-0.7,0.3-1.3,0.7-1.8,1.2s-0.9,1.1-1.2,1.8c-0.3,0.7-0.4,1.4-0.4,2.2c0,0.8,0.1,1.5,0.4,2.2
	c0.3,0.7,0.7,1.3,1.2,1.8s1.1,0.9,1.8,1.2c0.7,0.3,1.4,0.4,2.3,0.4c0.8,0,1.6-0.1,2.2-0.4c0.7-0.3,1.2-0.7,1.7-1.2s0.8-1.1,1.1-1.8
	C72.1,31.7,72.3,30.9,72.3,30.1z M59.3,46V23h2v2.4h0.1c0.3-0.5,0.7-0.9,1.1-1.2c0.4-0.3,0.9-0.6,1.4-0.9c0.5-0.2,1-0.4,1.5-0.5
	s1-0.1,1.5-0.1c1.1,0,2.1,0.2,3.1,0.6c0.9,0.4,1.7,0.9,2.4,1.6c0.7,0.7,1.2,1.5,1.6,2.4s0.6,1.9,0.6,3s-0.2,2.1-0.6,3
	s-0.9,1.7-1.6,2.4s-1.5,1.2-2.4,1.6c-0.9,0.4-1.9,0.6-3.1,0.6c-0.5,0-1,0-1.5-0.1s-1-0.3-1.5-0.5s-1-0.5-1.4-0.9
	c-0.4-0.3-0.8-0.8-1.1-1.2h-0.1V46H59.3z"/>
<path class="st0" d="M33.3,37.2v-11c0-0.5,0-1.1,0-1.6s-0.1-1.1-0.1-1.6h2.2v2.2h0.1c0.5-0.8,1.2-1.5,2-1.9c0.9-0.4,1.7-0.6,2.6-0.6
	c0.4,0,0.8,0,1.2,0.1s0.9,0.2,1.3,0.4c0.4,0.2,0.8,0.5,1.1,0.9c0.4,0.4,0.6,0.9,0.9,1.5c0.4-0.9,1-1.6,1.9-2.2
	c0.9-0.5,1.8-0.8,2.8-0.8c1.8,0,3.2,0.5,4.1,1.4c0.9,1,1.3,2.3,1.3,4.1v9h-2v-8.3c0-1.4-0.3-2.5-0.8-3.3s-1.4-1.1-2.8-1.1
	c-0.8,0-1.4,0.1-1.9,0.4S46.3,25.5,46,26s-0.5,1-0.7,1.7C45,28.4,45,29,45,29.7v7.6h-2V29c0-1.4-0.3-2.5-0.8-3.3s-1.4-1.1-2.8-1.1
	c-0.1,0-0.4,0-0.8,0.1c-0.4,0.1-0.9,0.3-1.4,0.7c-0.5,0.4-0.9,0.9-1.3,1.6c-0.4,0.7-0.6,1.7-0.6,3v7.3L33.3,37.2L33.3,37.2z"/>
<path class="st0" d="M20.8,5.2L20.8,5.2l-0.1,15.7h15.8C36.5,12.2,29.5,5.2,20.8,5.2z M28.5,18.6c-0.3,0.3-0.6,0.4-1,0.4
	s-0.7-0.1-1-0.4S26,18,26,17.6s0.1-0.8,0.5-1c0.3-0.3,0.6-0.4,1-0.4s0.7,0.1,1,0.4c0.3,0.3,0.5,0.6,0.5,1S28.8,18.3,28.5,18.6z"/>
<path class="st0" d="M116.8,17.2v3.2h-0.4v-3.2h-1.2v-0.3h2.7v0.3H116.8z M119.1,16.8l1.2,2.9l1.2-2.9h0.5v3.5h-0.4v-3l0,0l-1.3,3
	h-0.2l-1.3-3l0,0v3h-0.4v-3.5C118.4,16.8,119.1,16.8,119.1,16.8z"/>
<path class="st0" d="M28.5,23h-2v14.2h2V23z"/>
</svg>
