<svg width="476" height="169" viewBox="0 0 476 169" fill="none" xmlns="http://www.w3.org/2000/svg">
<path d="M136.037 68.7505C136.037 34.2295 108.115 6.25049 73.6962 6.25049C73.5791 6.25049 73.462 6.25049 73.345 6.25049V68.7505H136.037Z" fill="#DDDDDD"/>
<path d="M0 68.7501C0 30.7827 30.7313 0 68.5455 0C68.6626 0 68.7796 0 68.8967 0V68.7501H0Z" fill="#DDDDDD"/>
<path d="M6.26318 73.1309C6.26318 107.652 34.1848 135.631 68.6039 135.631C68.7209 135.631 68.838 135.631 68.9551 135.631V73.1309H6.26318Z" fill="#DDDDDD"/>
<path d="M433.879 84.5417H450.291V80.9091V77.3937H433.761V61.3984H425.761V77.3937H413.702V84.6589H425.761V120.341C425.761 123.505 426.232 126.024 427.114 127.957C427.997 129.891 429.173 131.414 430.526 132.527C431.879 133.641 433.408 134.402 435.055 134.813C436.761 135.223 438.349 135.398 439.879 135.398C444.114 135.398 447.702 134.695 450.702 133.348L450.349 125.965C449.173 126.61 447.82 127.137 446.349 127.547C444.938 127.957 443.467 128.133 442.114 128.133C440.879 128.133 439.761 128.016 438.761 127.723C437.761 127.43 436.879 126.903 436.173 126.2C435.467 125.438 434.879 124.442 434.467 123.094C434.055 121.747 433.879 120.048 433.879 117.938V84.5417Z" fill="#FE6900"/>
<path d="M336.73 105.456H332.647C330.663 105.456 328.155 105.574 325.121 105.75C322.088 105.927 319.229 106.458 316.429 107.224C313.629 107.99 311.295 109.169 309.312 110.819C307.328 112.469 306.336 114.65 306.336 117.538C306.336 119.423 306.745 121.015 307.503 122.37C308.261 123.726 309.312 124.787 310.595 125.671C311.878 126.496 313.279 127.144 314.854 127.498C316.429 127.851 318.004 128.028 319.637 128.028C322.554 128.028 325.063 127.557 327.163 126.555C329.263 125.553 331.072 124.256 332.53 122.606C333.988 120.956 335.038 119.011 335.739 116.771C336.439 114.532 336.789 112.174 336.789 109.64V105.456H336.73ZM332.705 98.8549H336.672V97.3815C336.672 87.5392 331.83 82.6475 322.204 82.6475C315.612 82.6475 309.895 84.8871 304.995 89.3662L300.153 83.6494C305.461 78.1095 313.395 75.3984 324.013 75.3984C326.755 75.3984 329.38 75.811 331.888 76.6361C334.397 77.4612 336.614 78.6988 338.48 80.349C340.347 81.9992 341.806 84.1209 342.914 86.5962C344.022 89.1305 344.606 92.1362 344.606 95.6134V121.074C344.606 123.254 344.723 125.553 344.898 127.969C345.073 130.386 345.306 132.33 345.539 133.863H337.839C337.605 132.507 337.43 130.975 337.314 129.384C337.197 127.733 337.139 126.201 337.139 124.61H336.964C334.63 128.441 331.888 131.152 328.68 132.802C325.529 134.452 321.621 135.277 317.07 135.277C314.562 135.277 312.17 134.924 309.837 134.216C307.503 133.509 305.461 132.448 303.653 131.034C301.844 129.619 300.386 127.851 299.336 125.789C298.227 123.726 297.702 121.309 297.702 118.539C297.702 113.942 298.869 110.288 301.261 107.636C303.653 104.984 306.628 103.039 310.187 101.743C313.745 100.446 317.596 99.621 321.621 99.3264C325.646 99.0317 329.38 98.8549 332.705 98.8549ZM410.702 85.2407L404.169 90.2503C402.827 88.1286 400.902 86.3605 398.451 84.8871C396.001 83.4137 393.201 82.7065 390.051 82.7065C386.784 82.6475 383.809 83.178 381.184 84.2977C378.558 85.4175 376.342 87.0088 374.475 89.0715C372.608 91.0754 371.208 93.4917 370.274 96.3206C369.283 99.1495 368.816 102.155 368.816 105.397C368.816 108.638 369.283 111.644 370.274 114.473C371.266 117.302 372.666 119.659 374.475 121.722C376.342 123.726 378.558 125.317 381.184 126.496C383.809 127.616 386.726 128.146 390.051 128.087C393.201 128.087 396.001 127.38 398.451 125.906C400.902 124.433 402.827 122.665 404.169 120.543L410.702 125.553C407.902 128.853 404.694 131.328 401.193 132.92C397.635 134.511 393.959 135.336 390.109 135.395C385.559 135.454 381.417 134.747 377.683 133.273C374.008 131.8 370.858 129.678 368.233 127.026C365.607 124.374 363.624 121.192 362.282 117.479C360.94 113.766 360.24 109.817 360.24 105.515C360.24 101.212 360.94 97.2047 362.282 93.5507C363.624 89.8377 365.607 86.6552 368.233 84.0031C370.858 81.351 374.008 79.2293 377.683 77.7559C381.359 76.2825 385.501 75.5163 390.109 75.6342C393.959 75.6931 397.635 76.5182 401.193 78.1095C404.694 79.465 407.902 81.8814 410.702 85.2407Z" fill="#DDDDDD"/>
<path d="M278.131 105.187C278.131 102.02 277.606 99.0882 276.615 96.3322C275.624 93.5763 274.166 91.2307 272.358 89.1784C270.492 87.1847 268.277 85.5428 265.653 84.3701C263.029 83.1973 260.113 82.6109 256.79 82.6109C253.525 82.6109 250.492 83.1973 247.752 84.3701C245.011 85.5428 242.679 87.1261 240.638 89.1784C238.656 91.1721 237.081 93.5763 235.915 96.3322C234.807 99.0882 234.224 102.02 234.224 105.187C234.224 108.353 234.807 111.285 235.915 114.041C237.023 116.797 238.597 119.142 240.638 121.195C242.621 123.188 245.011 124.83 247.752 126.003C250.492 127.176 253.466 127.762 256.79 127.762C260.055 127.762 263.029 127.176 265.653 126.003C268.277 124.83 270.492 123.247 272.358 121.195C274.224 119.201 275.624 116.797 276.615 114.041C277.606 111.285 278.131 108.294 278.131 105.187ZM226.702 168.398V76.8058H234.632V86.3051H234.866C236.148 84.3701 237.665 82.7282 239.414 81.3209C241.163 79.9722 243.029 78.7994 244.953 77.9199C246.877 77.0403 248.86 76.3953 250.901 75.9848C252.941 75.5744 254.924 75.3984 256.732 75.3984C261.163 75.3984 265.186 76.1607 268.86 77.6267C272.533 79.0926 275.682 81.2036 278.306 83.8423C280.93 86.481 283.029 89.6475 284.487 93.2831C285.944 96.9186 286.702 100.847 286.702 105.128C286.702 109.409 285.944 113.337 284.487 116.973C283.029 120.608 280.93 123.775 278.306 126.414C275.682 129.052 272.533 131.163 268.86 132.629C265.186 134.095 261.163 134.857 256.732 134.857C254.866 134.857 252.941 134.682 250.901 134.271C248.86 133.861 246.877 133.216 244.953 132.336C243.029 131.456 241.163 130.342 239.414 128.935C237.665 127.586 236.148 125.886 234.866 123.951H234.632V168.398H226.702Z" fill="#FE6900"/>
<path d="M123.288 133.282V89.3582C123.288 87.2554 123.229 85.1527 123.112 83.1084C122.995 81.0057 122.878 78.903 122.702 76.8587H131.249V85.4448H131.483C133.415 82.1739 136.108 79.6623 139.503 77.9684C142.957 76.2746 146.353 75.4568 149.748 75.4568C151.27 75.4568 152.909 75.6321 154.665 75.9241C156.421 76.2746 158.061 76.8003 159.7 77.6764C161.339 78.4941 162.802 79.7207 164.207 81.2393C165.612 82.758 166.783 84.7439 167.778 87.1386C169.417 83.5173 171.934 80.6552 175.447 78.5525C178.959 76.4498 182.589 75.3984 186.394 75.3984C193.653 75.3984 199.038 77.3259 202.492 81.1225C205.946 84.9191 207.702 90.4095 207.702 97.477V133.282H199.741V100.339C199.741 94.615 198.746 90.2343 196.697 87.197C194.707 84.1598 190.96 82.6411 185.457 82.6411C182.472 82.6411 179.954 83.2252 177.964 84.3934C175.974 85.5616 174.335 87.0802 173.047 89.0661C171.817 90.9936 170.881 93.2131 170.354 95.6663C169.769 98.1195 169.534 100.689 169.534 103.318V133.34H161.573V100.397C161.573 94.6734 160.578 90.2927 158.529 87.2554C156.538 84.2182 152.792 82.6995 147.289 82.6995C146.821 82.6995 145.709 82.8748 143.952 83.1668C142.196 83.5173 140.44 84.3934 138.567 85.7952C136.693 87.2554 135.054 89.4166 133.532 92.337C132.069 95.2575 131.308 99.2293 131.308 104.428V133.398H123.288V133.282Z" fill="#DDDDDD"/>
<path d="M105.702 55.3984C105.702 57.156 105.147 58.6106 103.98 59.7015C102.814 60.853 101.591 61.3984 100.202 61.3984C98.8135 61.3984 97.5357 60.853 96.4246 59.7015C95.258 58.55 94.7024 57.156 94.7024 55.3984C94.7024 53.6409 95.258 52.1863 96.4246 51.0954C97.5913 49.9439 98.8135 49.3984 100.202 49.3984C101.591 49.3984 102.869 49.9439 103.98 51.0954C105.091 52.1863 105.702 53.6409 105.702 55.3984Z" fill="#151515"/>
<path d="M454.847 53.7401V66.3984H453.429V53.7401H448.702V52.4568H459.573V53.7401H454.847ZM463.945 52.3984L468.731 63.7151L473.516 52.3984H475.702V66.3401H474.284V54.3234H474.225L469.144 66.3401H468.376L463.295 54.3234H463.177V66.3401H461.759V52.3984H463.945Z" fill="#DDDDDD"/>
<path d="M103.702 77.3984H95.7024V133.398H103.702V77.3984Z" fill="#FE6900"/>
</svg>
