<svg width="124" height="50" viewBox="0 0 124 50" fill="none" xmlns="http://www.w3.org/2000/svg">
<path d="M36.5269 19.9004C36.5269 11.2143 29.5014 4.17432 20.841 4.17432C20.8115 4.17432 20.7821 4.17432 20.7526 4.17432V19.9004H36.5269Z" fill="#DDDDDD"/>
<path d="M2.29767 19.9002C2.29767 10.347 10.0302 2.60156 19.5448 2.60156C19.5743 2.60156 19.6038 2.60156 19.6332 2.60156V19.9002H2.29767Z" fill="#DDDDDD"/>
<path d="M3.87363 21.0024C3.87363 29.6885 10.8992 36.7285 19.5596 36.7285C19.589 36.7285 19.6185 36.7285 19.6479 36.7285V21.0024H3.87363Z" fill="#DDDDDD"/>
<path d="M115.678 22.0166V23.8391H111.569V32.2165C111.569 32.7456 111.613 33.1718 111.716 33.5099C111.819 33.8479 111.967 34.0978 112.143 34.2888C112.32 34.4652 112.541 34.5975 112.792 34.671C113.042 34.7444 113.322 34.7738 113.631 34.7738C113.97 34.7738 114.338 34.7298 114.692 34.6269C115.06 34.524 115.398 34.3917 115.693 34.23L115.781 36.0819C115.03 36.4199 114.132 36.5963 113.071 36.5963C112.688 36.5963 112.291 36.5522 111.864 36.4493C111.451 36.3464 111.068 36.1554 110.73 35.8761C110.391 35.5969 110.096 35.2148 109.875 34.7298C109.654 34.2447 109.537 33.6128 109.537 32.8191V23.8685H106.517V22.046H109.537V18.0337H111.54V22.046H115.678V22.0166Z" fill="#DDDDDD"/>
<path d="M86.987 29.1592H85.956C85.4553 29.1592 84.8219 29.1886 84.056 29.2326C83.2902 29.2767 82.5685 29.409 81.8615 29.6001C81.1545 29.7911 80.5654 30.0851 80.0646 30.4966C79.5638 30.9081 79.3134 31.4519 79.3134 32.1721C79.3134 32.6424 79.4165 33.0392 79.608 33.3773C79.7995 33.7153 80.0646 33.9799 80.3886 34.2003C80.7126 34.4061 81.0661 34.5677 81.4638 34.6559C81.8615 34.7441 82.2592 34.7882 82.6716 34.7882C83.408 34.7882 84.0413 34.6706 84.5715 34.4208C85.1018 34.1709 85.5584 33.8476 85.9266 33.4361C86.2948 33.0245 86.5599 32.5395 86.7366 31.981C86.9134 31.4225 87.0018 30.8346 87.0018 30.2027V29.1592H86.987ZM85.9708 27.5131H86.9723V27.1456C86.9723 24.6912 85.7498 23.4713 83.3196 23.4713C81.6553 23.4713 80.2119 24.0298 78.9747 25.1468L77.7522 23.7212C79.0925 22.3396 81.0956 21.6636 83.7762 21.6636C84.4684 21.6636 85.1312 21.7665 85.7646 21.9722C86.3979 22.178 86.9576 22.4866 87.4289 22.8981C87.9002 23.3097 88.2684 23.8388 88.5483 24.456C88.8281 25.088 88.9754 25.8376 88.9754 26.7047V33.0539C88.9754 33.5977 89.0048 34.1709 89.049 34.7735C89.0932 35.3761 89.1521 35.8611 89.211 36.2432H87.2669C87.208 35.9052 87.1638 35.5231 87.1343 35.1262C87.1049 34.7147 87.0901 34.3326 87.0901 33.9358H87.0459C86.4568 34.8911 85.7646 35.5672 84.9545 35.9787C84.1591 36.3902 83.1723 36.596 82.0235 36.596C81.3902 36.596 80.7863 36.5078 80.1972 36.3314C79.608 36.155 79.0925 35.8905 78.6359 35.5378C78.1793 35.185 77.8111 34.7441 77.546 34.2297C77.2662 33.7153 77.1336 33.1127 77.1336 32.422C77.1336 31.2756 77.4282 30.3643 78.032 29.703C78.6359 29.0416 79.3871 28.5566 80.2855 28.2332C81.184 27.9099 82.1561 27.7041 83.1723 27.6307C84.1886 27.5572 85.1312 27.5131 85.9708 27.5131ZM105.663 24.118L104.013 25.3673C103.675 24.8382 103.188 24.3973 102.57 24.0298C101.951 23.6624 101.244 23.486 100.449 23.486C99.6242 23.4713 98.873 23.6036 98.2102 23.8829C97.5474 24.1621 96.9877 24.5589 96.5164 25.0733C96.0451 25.573 95.6916 26.1756 95.456 26.8811C95.2056 27.5866 95.0877 28.3361 95.0877 29.1445C95.0877 29.9528 95.2056 30.7024 95.456 31.4078C95.7063 32.1133 96.0598 32.7012 96.5164 33.2156C96.9877 33.7153 97.5474 34.1121 98.2102 34.4061C98.873 34.6853 99.6094 34.8176 100.449 34.8029C101.244 34.8029 101.951 34.6265 102.57 34.2591C103.188 33.8917 103.675 33.4508 104.013 32.9217L105.663 34.1709C104.956 34.994 104.146 35.6112 103.262 36.0081C102.364 36.4049 101.436 36.6107 100.464 36.6254C99.3149 36.6401 98.2691 36.4637 97.3265 36.0963C96.3986 35.7288 95.6032 35.1997 94.9405 34.5384C94.2777 33.877 93.7769 33.0833 93.4382 32.1574C93.0994 31.2315 92.9227 30.2468 92.9227 29.1739C92.9227 28.101 93.0994 27.1016 93.4382 26.1903C93.7769 25.2644 94.2777 24.4707 94.9405 23.8094C95.6032 23.148 96.3986 22.6189 97.3265 22.2515C98.2544 21.884 99.3001 21.693 100.464 21.7224C101.436 21.7371 102.364 21.9428 103.262 22.3396C104.146 22.6777 104.956 23.2803 105.663 24.118Z" fill="#DDDDDD"/>
<path d="M72.2585 29.1298C72.2585 28.3361 72.1259 27.6013 71.8755 26.9105C71.6251 26.2197 71.2569 25.6318 70.8003 25.1174C70.329 24.6177 69.7693 24.2062 69.1065 23.9123C68.4438 23.6183 67.7073 23.4713 66.8678 23.4713C66.043 23.4713 65.2771 23.6183 64.5849 23.9123C63.8926 24.2062 63.3035 24.603 62.788 25.1174C62.2872 25.6171 61.8895 26.2197 61.595 26.9105C61.3151 27.6013 61.1678 28.3361 61.1678 29.1298C61.1678 29.9234 61.3151 30.6583 61.595 31.3491C61.8748 32.0398 62.2725 32.6277 62.788 33.1421C63.2888 33.6418 63.8926 34.0533 64.5849 34.3473C65.2771 34.6412 66.0283 34.7882 66.8678 34.7882C67.6926 34.7882 68.4438 34.6412 69.1065 34.3473C69.7693 34.0533 70.329 33.6565 70.8003 33.1421C71.2716 32.6424 71.6251 32.0398 71.8755 31.3491C72.1259 30.6583 72.2585 29.9087 72.2585 29.1298ZM59.2679 44.9734V22.0163H61.2709V24.3973H61.3299C61.6539 23.9123 62.0368 23.5007 62.4787 23.148C62.9205 22.81 63.3919 22.516 63.8779 22.2956C64.3639 22.0751 64.8647 21.9134 65.3802 21.8105C65.8957 21.7077 66.3965 21.6636 66.8531 21.6636C67.9724 21.6636 68.9887 21.8546 69.9166 22.2221C70.8445 22.5895 71.6399 23.1186 72.3026 23.78C72.9654 24.4414 73.4957 25.235 73.8639 26.1462C74.2321 27.0575 74.4236 28.0422 74.4236 29.1151C74.4236 30.188 74.2321 31.1727 73.8639 32.0839C73.4957 32.9951 72.9654 33.7888 72.3026 34.4502C71.6399 35.1115 70.8445 35.6406 69.9166 36.0081C68.9887 36.3755 67.9724 36.5666 66.8531 36.5666C66.3818 36.5666 65.8957 36.5225 65.3802 36.4196C64.8647 36.3167 64.3639 36.155 63.8779 35.9346C63.3919 35.7141 62.9205 35.4349 62.4787 35.0821C62.0368 34.7441 61.6539 34.3179 61.3299 33.8329H61.2709V44.9734H59.2679Z" fill="#DDDDDD"/>
<path d="M33.3455 36.2285V25.1762C33.3455 24.6471 33.3308 24.118 33.3013 23.6036C33.2719 23.0745 33.2424 22.5454 33.1982 22.031H35.3486V24.1915H35.4075C35.8936 23.3685 36.5711 22.7365 37.4253 22.3103C38.2943 21.884 39.1486 21.6783 40.0029 21.6783C40.3858 21.6783 40.7982 21.7224 41.2401 21.7959C41.6819 21.884 42.0943 22.0163 42.5067 22.2368C42.9191 22.4425 43.2873 22.7512 43.6408 23.1333C43.9943 23.5154 44.2889 24.0151 44.5393 24.6177C44.9517 23.7065 45.585 22.9863 46.4687 22.4572C47.3524 21.9281 48.2656 21.6636 49.2229 21.6636C51.0493 21.6636 52.4043 22.1486 53.2733 23.1039C54.1423 24.0592 54.5842 25.4408 54.5842 27.2191V36.2285H52.5811V27.9393C52.5811 26.499 52.3307 25.3967 51.8152 24.6324C51.3144 23.8682 50.3718 23.486 48.9873 23.486C48.2361 23.486 47.6028 23.633 47.102 23.927C46.6013 24.2209 46.1889 24.603 45.8648 25.1027C45.5555 25.5877 45.3199 26.1462 45.1873 26.7635C45.04 27.3808 44.9811 28.0275 44.9811 28.6889V36.2432H42.978V27.954C42.978 26.5137 42.7276 25.4114 42.2121 24.6471C41.7114 23.8829 40.7687 23.5007 39.3842 23.5007C39.2664 23.5007 38.9866 23.5448 38.5447 23.6183C38.1029 23.7065 37.661 23.9269 37.1897 24.2797C36.7184 24.6471 36.306 25.1909 35.923 25.9258C35.5548 26.6606 35.3633 27.66 35.3633 28.9681V36.2579H33.3455V36.2285Z" fill="#DDDDDD"/>
<path d="M28.9712 16.5639C28.9712 16.9901 28.8239 17.3429 28.5146 17.6074C28.2053 17.8867 27.8812 18.0189 27.513 18.0189C27.1448 18.0189 26.8061 17.8867 26.5115 17.6074C26.2022 17.3282 26.0549 16.9901 26.0549 16.5639C26.0549 16.1377 26.2022 15.785 26.5115 15.5204C26.8208 15.2412 27.1448 15.1089 27.513 15.1089C27.8812 15.1089 28.22 15.2412 28.5146 15.5204C28.8091 15.785 28.9712 16.1377 28.9712 16.5639Z" fill="#1B1B1B"/>
<path d="M116.783 16.1818V19.3711H116.43V16.1818H115.251V15.8584H117.961V16.1818H116.783ZM119.051 15.8438L120.244 18.695L121.437 15.8438H121.982V19.3564H121.629V16.3288H121.614L120.347 19.3564H120.156L118.889 16.3288H118.86V19.3564H118.506V15.8438H119.051Z" fill="#DDDDDD"/>
<path d="M28.4998 22.0166H26.4967V36.2288H28.4998V22.0166Z" fill="#DDDDDD"/>
</svg>
