<?xml version="1.0" encoding="utf-8"?>
<!-- Generator: Adobe Illustrator 25.2.0, SVG Export Plug-In . SVG Version: 6.00 Build 0)  -->
<svg version="1.1" id="Layer_1" xmlns="http://www.w3.org/2000/svg" xmlns:xlink="http://www.w3.org/1999/xlink" x="0px" y="0px"
	 viewBox="0 0 124 50" style="enable-background:new 0 0 124 50;" xml:space="preserve">
<style type="text/css">
	.st0{fill:#DDDDDD;}
</style>
<path class="st0" d="M2.3,19.9c0-9.6,7.7-17.3,17.2-17.3c0,0,0.1,0,0.1,0v17.3H2.3z"/>
<path class="st0" d="M3.9,21c0,8.7,7,15.7,15.7,15.7c0,0,0.1,0,0.1,0V21H3.9z"/>
<path class="st0" d="M115.7,22v1.8h-4.1v8.4c0,0.5,0,1,0.1,1.3c0.1,0.3,0.3,0.6,0.4,0.8c0.2,0.2,0.4,0.3,0.6,0.4
	c0.2,0.1,0.5,0.1,0.8,0.1c0.3,0,0.7,0,1.1-0.1c0.4-0.1,0.7-0.2,1-0.4l0.1,1.9c-0.8,0.3-1.6,0.5-2.7,0.5c-0.4,0-0.8,0-1.2-0.1
	c-0.4-0.1-0.8-0.3-1.1-0.6c-0.3-0.3-0.6-0.7-0.9-1.1c-0.2-0.5-0.3-1.1-0.3-1.9v-9h-3V22h3v-4h2v4L115.7,22L115.7,22z"/>
<path class="st0" d="M87,29.2h-1c-0.5,0-1.1,0-1.9,0.1c-0.8,0-1.5,0.2-2.2,0.4c-0.7,0.2-1.3,0.5-1.8,0.9c-0.5,0.4-0.8,1-0.8,1.7
	c0,0.5,0.1,0.9,0.3,1.2c0.2,0.3,0.5,0.6,0.8,0.8c0.3,0.2,0.7,0.4,1.1,0.5c0.4,0.1,0.8,0.1,1.2,0.1c0.7,0,1.4-0.1,1.9-0.4
	c0.5-0.2,1-0.6,1.4-1c0.4-0.4,0.6-0.9,0.8-1.5c0.2-0.6,0.3-1.1,0.3-1.8L87,29.2L87,29.2z M86,27.5h1v-0.4c0-2.5-1.2-3.7-3.7-3.7
	c-1.7,0-3.1,0.6-4.3,1.7l-1.2-1.4c1.3-1.4,3.3-2.1,6-2.1c0.7,0,1.4,0.1,2,0.3c0.6,0.2,1.2,0.5,1.7,0.9c0.5,0.4,0.8,0.9,1.1,1.6
	c0.3,0.6,0.4,1.4,0.4,2.2v6.3c0,0.5,0,1.1,0.1,1.7c0,0.6,0.1,1.1,0.2,1.5h-1.9c-0.1-0.3-0.1-0.7-0.1-1.1c0-0.4,0-0.8,0-1.2h0
	c-0.6,1-1.3,1.6-2.1,2c-0.8,0.4-1.8,0.6-2.9,0.6c-0.6,0-1.2-0.1-1.8-0.3c-0.6-0.2-1.1-0.4-1.6-0.8c-0.5-0.4-0.8-0.8-1.1-1.3
	c-0.3-0.5-0.4-1.1-0.4-1.8c0-1.1,0.3-2.1,0.9-2.7c0.6-0.7,1.4-1.1,2.3-1.5c0.9-0.3,1.9-0.5,2.9-0.6C84.2,27.6,85.1,27.5,86,27.5z
	 M105.7,24.1l-1.7,1.2c-0.3-0.5-0.8-1-1.4-1.3c-0.6-0.4-1.3-0.5-2.1-0.5c-0.8,0-1.6,0.1-2.2,0.4c-0.7,0.3-1.2,0.7-1.7,1.2
	c-0.5,0.5-0.8,1.1-1.1,1.8c-0.3,0.7-0.4,1.5-0.4,2.3c0,0.8,0.1,1.6,0.4,2.3c0.3,0.7,0.6,1.3,1.1,1.8c0.5,0.5,1,0.9,1.7,1.2
	c0.7,0.3,1.4,0.4,2.2,0.4c0.8,0,1.5-0.2,2.1-0.5c0.6-0.4,1.1-0.8,1.4-1.3l1.7,1.2c-0.7,0.8-1.5,1.4-2.4,1.8
	c-0.9,0.4-1.8,0.6-2.8,0.6c-1.1,0-2.2-0.2-3.1-0.5c-0.9-0.4-1.7-0.9-2.4-1.6c-0.7-0.7-1.2-1.5-1.5-2.4c-0.3-0.9-0.5-1.9-0.5-3
	c0-1.1,0.2-2.1,0.5-3c0.3-0.9,0.8-1.7,1.5-2.4c0.7-0.7,1.5-1.2,2.4-1.6c0.9-0.4,2-0.6,3.1-0.5c1,0,1.9,0.2,2.8,0.6
	C104.1,22.7,105,23.3,105.7,24.1z"/>
<path class="st0" d="M72.3,29.1c0-0.8-0.1-1.5-0.4-2.2c-0.3-0.7-0.6-1.3-1.1-1.8c-0.5-0.5-1-0.9-1.7-1.2c-0.7-0.3-1.4-0.4-2.2-0.4
	c-0.8,0-1.6,0.1-2.3,0.4c-0.7,0.3-1.3,0.7-1.8,1.2c-0.5,0.5-0.9,1.1-1.2,1.8c-0.3,0.7-0.4,1.4-0.4,2.2c0,0.8,0.1,1.5,0.4,2.2
	c0.3,0.7,0.7,1.3,1.2,1.8c0.5,0.5,1.1,0.9,1.8,1.2c0.7,0.3,1.4,0.4,2.3,0.4c0.8,0,1.6-0.1,2.2-0.4c0.7-0.3,1.2-0.7,1.7-1.2
	c0.5-0.5,0.8-1.1,1.1-1.8C72.1,30.7,72.3,29.9,72.3,29.1z M59.3,45V22h2v2.4h0.1c0.3-0.5,0.7-0.9,1.1-1.2c0.4-0.3,0.9-0.6,1.4-0.9
	c0.5-0.2,1-0.4,1.5-0.5c0.5-0.1,1-0.1,1.5-0.1c1.1,0,2.1,0.2,3.1,0.6c0.9,0.4,1.7,0.9,2.4,1.6c0.7,0.7,1.2,1.5,1.6,2.4
	c0.4,0.9,0.6,1.9,0.6,3c0,1.1-0.2,2.1-0.6,3c-0.4,0.9-0.9,1.7-1.6,2.4c-0.7,0.7-1.5,1.2-2.4,1.6c-0.9,0.4-1.9,0.6-3.1,0.6
	c-0.5,0-1,0-1.5-0.1c-0.5-0.1-1-0.3-1.5-0.5c-0.5-0.2-1-0.5-1.4-0.9c-0.4-0.3-0.8-0.8-1.1-1.2h-0.1V45H59.3z"/>
<path class="st0" d="M33.3,36.2V25.2c0-0.5,0-1.1,0-1.6c0-0.5-0.1-1.1-0.1-1.6h2.2v2.2h0.1c0.5-0.8,1.2-1.5,2-1.9
	c0.9-0.4,1.7-0.6,2.6-0.6c0.4,0,0.8,0,1.2,0.1c0.4,0.1,0.9,0.2,1.3,0.4c0.4,0.2,0.8,0.5,1.1,0.9c0.4,0.4,0.6,0.9,0.9,1.5
	c0.4-0.9,1-1.6,1.9-2.2c0.9-0.5,1.8-0.8,2.8-0.8c1.8,0,3.2,0.5,4.1,1.4c0.9,1,1.3,2.3,1.3,4.1v9h-2v-8.3c0-1.4-0.3-2.5-0.8-3.3
	c-0.5-0.8-1.4-1.1-2.8-1.1c-0.8,0-1.4,0.1-1.9,0.4c-0.5,0.3-0.9,0.7-1.2,1.2c-0.3,0.5-0.5,1-0.7,1.7C45,27.4,45,28,45,28.7v7.6h-2
	V28c0-1.4-0.3-2.5-0.8-3.3c-0.5-0.8-1.4-1.1-2.8-1.1c-0.1,0-0.4,0-0.8,0.1c-0.4,0.1-0.9,0.3-1.4,0.7c-0.5,0.4-0.9,0.9-1.3,1.6
	c-0.4,0.7-0.6,1.7-0.6,3v7.3L33.3,36.2L33.3,36.2z"/>
<path class="st0" d="M20.8,4.2C20.8,4.2,20.8,4.2,20.8,4.2l-0.1,15.7h15.8C36.5,11.2,29.5,4.2,20.8,4.2z M28.5,17.6
	c-0.3,0.3-0.6,0.4-1,0.4s-0.7-0.1-1-0.4c-0.3-0.3-0.5-0.6-0.5-1s0.1-0.8,0.5-1c0.3-0.3,0.6-0.4,1-0.4s0.7,0.1,1,0.4
	c0.3,0.3,0.5,0.6,0.5,1S28.8,17.3,28.5,17.6z"/>
<path class="st0" d="M116.8,16.2v3.2h-0.4v-3.2h-1.2v-0.3h2.7v0.3H116.8z M119.1,15.8l1.2,2.9l1.2-2.9h0.5v3.5h-0.4v-3h0l-1.3,3
	h-0.2l-1.3-3h0v3h-0.4v-3.5H119.1z"/>
<path class="st0" d="M28.5,22h-2v14.2h2V22z"/>
</svg>
