<?xml version="1.0" encoding="UTF-8" standalone="no"?><!-- Generator: Gravit.io --><svg xmlns="http://www.w3.org/2000/svg" xmlns:xlink="http://www.w3.org/1999/xlink" style="isolation:isolate" viewBox="0 0 841.89 340.157" width="841.89pt" height="340.157pt"><defs><clipPath id="_clipPath_xtlIiJ3epVqfvr6rknrXBszYnHqIS2Lr"><rect width="841.89" height="340.157"/></clipPath></defs><g clip-path="url(#_clipPath_xtlIiJ3epVqfvr6rknrXBszYnHqIS2Lr)"><g><path d=" M 247.963 135.368 C 247.963 76.295 200.25 28.335 141.481 28.335 C 141.296 28.335 141.111 28.335 140.93 28.354 L 140.93 135.368 L 247.963 135.368 L 247.963 135.368 Z " fill="rgb(83,83,83)"/><path d=" M 15.641 135.368 C 15.641 70.388 68.125 17.632 132.771 17.632 C 132.975 17.632 133.179 17.632 133.378 17.652 L 133.378 135.368 L 15.641 135.368 L 15.641 135.368 Z " fill="rgb(255,106,0)"/><path d=" M 26.344 142.92 C 26.344 201.993 74.057 249.953 132.826 249.953 C 133.011 249.953 133.197 249.953 133.378 249.935 L 133.378 142.92 L 26.344 142.92 L 26.344 142.92 Z " fill="rgb(83,83,83)"/></g><path d=" M 785.351 149.841 L 785.351 162.234 L 757.466 162.234 L 757.466 219.245 L 757.466 219.245 Q 757.466 224.615 758.499 228.024 L 758.499 228.024 L 758.499 228.024 Q 759.531 231.432 761.39 233.291 L 761.39 233.291 L 761.39 233.291 Q 763.25 235.15 765.832 235.873 L 765.832 235.873 L 765.832 235.873 Q 768.414 236.596 771.512 236.596 L 771.512 236.596 L 771.512 236.596 Q 775.023 236.596 778.741 235.563 L 778.741 235.563 L 778.741 235.563 Q 782.46 234.53 785.558 232.878 L 785.558 232.878 L 786.178 245.478 L 786.178 245.478 Q 778.535 248.99 767.794 248.99 L 767.794 248.99 L 767.794 248.99 Q 763.869 248.99 759.635 247.957 L 759.635 247.957 L 759.635 247.957 Q 755.4 246.924 751.889 244.032 L 751.889 244.032 L 751.889 244.032 Q 748.377 241.14 746.105 236.183 L 746.105 236.183 L 746.105 236.183 Q 743.833 231.225 743.833 223.17 L 743.833 223.17 L 743.833 162.234 L 723.383 162.234 L 723.383 149.841 L 743.833 149.841 L 743.833 122.575 L 757.466 122.575 L 757.466 149.841 L 785.351 149.841 Z " fill="rgb(255,106,0)"/><path d=" M 590.566 198.382 L 583.543 198.382 L 583.543 198.382 Q 578.379 198.382 570.633 198.899 L 570.633 198.899 L 570.633 198.899 Q 562.887 199.415 555.76 201.378 L 555.76 201.378 L 555.76 201.378 Q 548.634 203.34 543.573 207.471 L 543.573 207.471 L 543.573 207.471 Q 538.513 211.602 538.513 218.832 L 538.513 218.832 L 538.513 218.832 Q 538.513 223.583 540.475 226.991 L 540.475 226.991 L 540.475 226.991 Q 542.437 230.399 545.742 232.568 L 545.742 232.568 L 545.742 232.568 Q 549.047 234.737 553.075 235.666 L 553.075 235.666 L 553.075 235.666 Q 557.103 236.596 561.234 236.596 L 561.234 236.596 L 561.234 236.596 Q 568.67 236.596 574.144 234.117 L 574.144 234.117 L 574.144 234.117 Q 579.618 231.638 583.336 227.404 L 583.336 227.404 L 583.336 227.404 Q 587.054 223.17 588.81 217.489 L 588.81 217.489 L 588.81 217.489 Q 590.566 211.809 590.566 205.405 L 590.566 205.405 L 590.566 198.382 Z  M 583.749 187.228 L 590.566 187.228 L 590.566 184.749 L 590.566 184.749 Q 590.566 159.756 565.778 159.756 L 565.778 159.756 L 565.778 159.756 Q 548.841 159.756 536.24 171.117 L 536.24 171.117 L 527.978 161.408 L 527.978 161.408 Q 541.611 147.362 568.877 147.362 L 568.877 147.362 L 568.877 147.362 Q 575.9 147.362 582.407 149.428 L 582.407 149.428 L 582.407 149.428 Q 588.913 151.493 593.664 155.728 L 593.664 155.728 L 593.664 155.728 Q 598.415 159.962 601.307 166.366 L 601.307 166.366 L 601.307 166.366 Q 604.199 172.769 604.199 181.651 L 604.199 181.651 L 604.199 224.822 L 604.199 224.822 Q 604.199 230.399 604.715 236.493 L 604.715 236.493 L 604.715 236.493 Q 605.231 242.586 605.851 246.511 L 605.851 246.511 L 592.631 246.511 L 592.631 246.511 Q 592.012 242.999 591.702 238.868 L 591.702 238.868 L 591.702 238.868 Q 591.392 234.737 591.392 230.812 L 591.392 230.812 L 590.979 230.812 L 590.979 230.812 Q 584.988 240.521 576.829 244.755 L 576.829 244.755 L 576.829 244.755 Q 568.67 248.99 556.896 248.99 L 556.896 248.99 L 556.896 248.99 Q 550.493 248.99 544.503 247.234 L 544.503 247.234 L 544.503 247.234 Q 538.513 245.478 533.865 241.863 L 533.865 241.863 L 533.865 241.863 Q 529.217 238.248 526.429 232.981 L 526.429 232.981 L 526.429 232.981 Q 523.64 227.714 523.64 220.691 L 523.64 220.691 L 523.64 220.691 Q 523.64 208.917 529.734 202.204 L 529.734 202.204 L 529.734 202.204 Q 535.827 195.491 545.019 192.186 L 545.019 192.186 L 545.019 192.186 Q 554.211 188.881 564.642 188.054 L 564.642 188.054 L 564.642 188.054 Q 575.074 187.228 583.749 187.228 L 583.749 187.228 Z  M 717.393 164.093 L 706.239 172.562 L 706.239 172.562 Q 702.727 167.192 696.427 163.474 L 696.427 163.474 L 696.427 163.474 Q 690.127 159.756 682.071 159.756 L 682.071 159.756 L 682.071 159.756 Q 673.603 159.549 666.889 162.441 L 666.889 162.441 L 666.889 162.441 Q 660.176 165.333 655.425 170.497 L 655.425 170.497 L 655.425 170.497 Q 650.674 175.661 648.196 182.787 L 648.196 182.787 L 648.196 182.787 Q 645.717 189.913 645.717 198.176 L 645.717 198.176 L 645.717 198.176 Q 645.717 206.438 648.196 213.565 L 648.196 213.565 L 648.196 213.565 Q 650.674 220.691 655.425 225.855 L 655.425 225.855 L 655.425 225.855 Q 660.176 231.019 666.889 233.911 L 666.889 233.911 L 666.889 233.911 Q 673.603 236.802 682.071 236.596 L 682.071 236.596 L 682.071 236.596 Q 690.127 236.596 696.427 232.878 L 696.427 232.878 L 696.427 232.878 Q 702.727 229.16 706.239 223.789 L 706.239 223.789 L 717.393 232.258 L 717.393 232.258 Q 710.164 240.727 701.075 244.755 L 701.075 244.755 L 701.075 244.755 Q 691.986 248.783 682.071 248.99 L 682.071 248.99 L 682.071 248.99 Q 670.298 249.196 660.796 245.375 L 660.796 245.375 L 660.796 245.375 Q 651.294 241.553 644.581 234.737 L 644.581 234.737 L 644.581 234.737 Q 637.868 227.92 634.356 218.522 L 634.356 218.522 L 634.356 218.522 Q 630.845 209.124 630.845 198.176 L 630.845 198.176 L 630.845 198.176 Q 630.845 187.228 634.356 177.83 L 634.356 177.83 L 634.356 177.83 Q 637.868 168.431 644.581 161.615 L 644.581 161.615 L 644.581 161.615 Q 651.294 154.798 660.796 150.977 L 660.796 150.977 L 660.796 150.977 Q 670.298 147.156 682.071 147.362 L 682.071 147.362 L 682.071 147.362 Q 691.986 147.569 701.075 151.597 L 701.075 151.597 L 701.075 151.597 Q 710.164 155.625 717.393 164.093 L 717.393 164.093 Z " fill="rgb(83,83,83)"/><path d=" M 490.591 198.176 L 490.591 198.176 L 490.591 198.176 Q 490.591 190.12 488.009 183.097 L 488.009 183.097 L 488.009 183.097 Q 485.427 176.074 480.676 170.91 L 480.676 170.91 L 480.676 170.91 Q 475.925 165.746 469.212 162.751 L 469.212 162.751 L 469.212 162.751 Q 462.499 159.756 454.03 159.756 L 454.03 159.756 L 454.03 159.756 Q 445.561 159.756 438.538 162.751 L 438.538 162.751 L 438.538 162.751 Q 431.515 165.746 426.351 170.91 L 426.351 170.91 L 426.351 170.91 Q 421.187 176.074 418.295 183.097 L 418.295 183.097 L 418.295 183.097 Q 415.403 190.12 415.403 198.176 L 415.403 198.176 L 415.403 198.176 Q 415.403 206.232 418.295 213.255 L 418.295 213.255 L 418.295 213.255 Q 421.187 220.278 426.351 225.442 L 426.351 225.442 L 426.351 225.442 Q 431.515 230.606 438.538 233.601 L 438.538 233.601 L 438.538 233.601 Q 445.561 236.596 454.03 236.596 L 454.03 236.596 L 454.03 236.596 Q 462.499 236.596 469.212 233.601 L 469.212 233.601 L 469.212 233.601 Q 475.925 230.606 480.676 225.442 L 480.676 225.442 L 480.676 225.442 Q 485.427 220.278 488.009 213.255 L 488.009 213.255 L 488.009 213.255 Q 490.591 206.232 490.591 198.176 Z  M 402.39 306 L 402.39 149.841 L 416.023 149.841 L 416.023 165.953 L 416.436 165.953 L 416.436 165.953 Q 419.741 160.995 424.285 157.484 L 424.285 157.484 L 424.285 157.484 Q 428.829 153.972 433.787 151.7 L 433.787 151.7 L 433.787 151.7 Q 438.744 149.428 444.011 148.395 L 444.011 148.395 L 444.011 148.395 Q 449.279 147.362 454.03 147.362 L 454.03 147.362 L 454.03 147.362 Q 465.39 147.362 474.789 151.183 L 474.789 151.183 L 474.789 151.183 Q 484.187 155.005 491.004 161.821 L 491.004 161.821 L 491.004 161.821 Q 497.82 168.638 501.642 177.933 L 501.642 177.933 L 501.642 177.933 Q 505.463 187.228 505.463 198.176 L 505.463 198.176 L 505.463 198.176 Q 505.463 209.124 501.642 218.419 L 501.642 218.419 L 501.642 218.419 Q 497.82 227.714 491.004 234.53 L 491.004 234.53 L 491.004 234.53 Q 484.187 241.347 474.789 245.168 L 474.789 245.168 L 474.789 245.168 Q 465.39 248.99 454.03 248.99 L 454.03 248.99 L 454.03 248.99 Q 449.279 248.99 444.011 247.957 L 444.011 247.957 L 444.011 247.957 Q 438.744 246.924 433.787 244.652 L 433.787 244.652 L 433.787 244.652 Q 428.829 242.38 424.285 238.868 L 424.285 238.868 L 424.285 238.868 Q 419.741 235.357 416.436 230.399 L 416.436 230.399 L 416.023 230.399 L 416.023 306 L 402.39 306 Z " fill="rgb(255,106,0)"/><path d=" M 226.401 246.511 L 226.401 171.323 L 226.401 171.323 Q 226.401 165.953 226.091 160.582 L 226.091 160.582 L 226.091 160.582 Q 225.781 155.211 225.368 149.841 L 225.368 149.841 L 240.034 149.841 L 240.034 164.507 L 240.447 164.507 L 240.447 164.507 Q 245.404 156.038 254.183 151.7 L 254.183 151.7 L 254.183 151.7 Q 262.962 147.362 271.637 147.362 L 271.637 147.362 L 271.637 147.362 Q 275.562 147.362 280.003 148.188 L 280.003 148.188 L 280.003 148.188 Q 284.444 149.015 288.575 151.183 L 288.575 151.183 L 288.575 151.183 Q 292.706 153.352 296.321 157.277 L 296.321 157.277 L 296.321 157.277 Q 299.936 161.202 302.415 167.398 L 302.415 167.398 L 302.415 167.398 Q 306.546 158.103 315.531 152.733 L 315.531 152.733 L 315.531 152.733 Q 324.517 147.362 334.225 147.362 L 334.225 147.362 L 334.225 147.362 Q 352.815 147.362 361.697 157.174 L 361.697 157.174 L 361.697 157.174 Q 370.58 166.985 370.58 185.163 L 370.58 185.163 L 370.58 246.511 L 356.947 246.511 L 356.947 190.12 L 356.947 190.12 Q 356.947 175.454 351.783 167.605 L 351.783 167.605 L 351.783 167.605 Q 346.619 159.756 332.573 159.756 L 332.573 159.756 L 332.573 159.756 Q 324.93 159.756 319.766 162.751 L 319.766 162.751 L 319.766 162.751 Q 314.602 165.746 311.4 170.703 L 311.4 170.703 L 311.4 170.703 Q 308.198 175.661 306.753 181.961 L 306.753 181.961 L 306.753 181.961 Q 305.307 188.261 305.307 195.077 L 305.307 195.077 L 305.307 246.511 L 291.674 246.511 L 291.674 190.12 L 291.674 190.12 Q 291.674 175.454 286.51 167.605 L 286.51 167.605 L 286.51 167.605 Q 281.346 159.756 267.3 159.756 L 267.3 159.756 L 267.3 159.756 Q 266.06 159.756 261.619 160.582 L 261.619 160.582 L 261.619 160.582 Q 257.178 161.408 252.427 165.126 L 252.427 165.126 L 252.427 165.126 Q 247.676 168.844 243.855 176.281 L 243.855 176.281 L 243.855 176.281 Q 240.034 183.717 240.034 196.937 L 240.034 196.937 L 240.034 246.511 L 226.401 246.511 Z " fill="rgb(83,83,83)"/><path d=" M 196.656 112.66 L 196.656 112.66 L 196.656 112.66 Q 196.656 116.998 193.558 119.786 L 193.558 119.786 L 193.558 119.786 Q 190.459 122.575 186.741 122.575 L 186.741 122.575 L 186.741 122.575 Q 183.023 122.575 179.925 119.786 L 179.925 119.786 L 179.925 119.786 Q 176.827 116.998 176.827 112.66 L 176.827 112.66 L 176.827 112.66 Q 176.827 108.322 179.925 105.534 L 179.925 105.534 L 179.925 105.534 Q 183.023 102.745 186.741 102.745 L 186.741 102.745 L 186.741 102.745 Q 190.459 102.745 193.558 105.534 L 193.558 105.534 L 193.558 105.534 Q 196.656 108.322 196.656 112.66 Z  M 193.558 149.841 L 193.558 246.511 L 179.925 246.511 L 179.925 149.841 L 193.558 149.841 Z " fill="rgb(255,106,0)"/><path d=" M 141.097 12.5 C 141.097 12.5 141.097 12.5 141.097 12.5" fill="rgb(235,235,235)"/><path d=" M 792.854 110.066 L 792.854 131.725 L 790.425 131.725 L 790.425 110.066 L 782.429 110.066 L 782.429 107.839 L 800.85 107.839 L 800.85 110.066 L 792.854 110.066 Z  M 808.272 107.839 L 816.335 127.272 L 824.398 107.839 L 828.109 107.839 L 828.109 131.725 L 825.68 131.725 L 825.68 111.078 L 825.613 111.078 L 816.976 131.725 L 815.694 131.725 L 807.057 111.078 L 806.99 111.078 L 806.99 131.725 L 804.561 131.725 L 804.561 107.839 L 808.272 107.839 Z " fill="rgb(83,83,83)"/></g></svg>